<svg xmlns="http://www.w3.org/2000/svg" viewBox="0 0 640 400" role="img" aria-label="Illustration: LKW-Ausbildung (Sattelzug)">
  <rect x="0" y="0" width="640" height="400" rx="20" fill="#eef3f8"/>
  <circle cx="540" cy="84" r="44" fill="#ffb400" opacity="0.85"/>
  <rect x="0" y="290" width="640" height="70" fill="#0e2a47"/>
  <g stroke="#ffb400" stroke-width="5" stroke-dasharray="26 20"><line x1="10" y1="325" x2="630" y2="325"/></g>
  <ellipse cx="320" cy="296" rx="230" ry="10" fill="#0e2a47" opacity="0.2"/>
  <!-- trailer -->
  <rect x="70" y="108" width="330" height="152" rx="10" fill="#ffffff" stroke="#c8d4e0" stroke-width="3"/>
  <text x="235" y="196" text-anchor="middle" font-family="Arial, Helvetica, sans-serif" font-size="36" font-weight="800" letter-spacing="2" fill="#0e2a47">GRAFWEG</text>
  <rect x="70" y="232" width="330" height="10" fill="#ffb400"/>
  <!-- cab -->
  <path d="M412 260 l0 -108 q0 -12 12 -12 l70 0 q10 0 16 8 l32 44 q6 8 6 18 l0 50 z" fill="#16385d"/>
  <path d="M432 156 l56 0 q6 0 10 5 l26 36 -92 0 z" fill="#dbe6f1"/>
  <rect x="404" y="252" width="152" height="18" rx="8" fill="#0e2a47"/>
  <rect x="540" y="216" width="14" height="10" rx="4" fill="#ffd670"/>
  <!-- wheels -->
  <circle cx="130" cy="272" r="24" fill="#081b30"/><circle cx="130" cy="272" r="10" fill="#dbe6f1"/>
  <circle cx="186" cy="272" r="24" fill="#081b30"/><circle cx="186" cy="272" r="10" fill="#dbe6f1"/>
  <circle cx="452" cy="272" r="26" fill="#081b30"/><circle cx="452" cy="272" r="11" fill="#dbe6f1"/>
  <circle cx="522" cy="272" r="26" fill="#081b30"/><circle cx="522" cy="272" r="11" fill="#dbe6f1"/>
</svg>
